<svg width="30" height="30" viewBox="0 0 30 30" fill="none" xmlns="http://www.w3.org/2000/svg">
<g clip-path="url(#clip0_80_524)">
<path d="M24.8589 10.5623V18.361L15.0067 24.9024L15 24.8981L5.09521 18.3214V10.5317L15 17.1085L24.8589 10.5623Z" fill="#006659"/>
<path d="M24.859 10.5623V18.361L15.0067 24.9024L15 24.8981V17.1085L24.859 10.5623Z" fill="#005349"/>
<path d="M29.8224 9.46465L15.0001 19.3066L0.177734 9.46465L15.0001 0L29.8224 9.46465Z" fill="#00DDC0"/>
<path d="M29.8223 9.46465L15 19.3066V0L29.8223 9.46465Z" fill="#00AC93"/>
<path d="M21.8104 13.8036V26.785H19.9791V14.7834L15.2538 11.6342C14.8332 11.354 14.7197 10.7857 14.9999 10.3645C15.0054 10.356 15.0109 10.3481 15.0176 10.3401C15.1946 10.0917 15.476 9.95679 15.7623 9.95679C15.9369 9.95679 16.1133 10.0068 16.2696 10.1106L21.8104 13.8036Z" fill="#FF9900"/>
<path d="M21.8104 13.8035V26.7848H20.8948V14.3119L15.0176 10.3399C15.1946 10.0914 15.476 9.95654 15.7623 9.95654C15.9369 9.95654 16.1133 10.0066 16.2696 10.1104L21.8104 13.8035Z" fill="#FF8800"/>
<path d="M23.4586 25.7068V29.9999H21.6274V27.538H20.1623V29.9999H18.3311V25.7068H23.4586Z" fill="#E47500"/>
<path d="M23.4585 25.7068V29.9999H21.6273V27.538H20.8948V25.7068H23.4585Z" fill="#BF6100"/>
</g>
<defs>
<clipPath id="clip0_80_524">
<rect width="30" height="30" fill="white"/>
</clipPath>
</defs>
</svg>
