<svg width="20" height="20" viewBox="0 0 20 20" fill="none" xmlns="http://www.w3.org/2000/svg">
<path d="M10 17C9.33333 16.5556 8.62014 16.1944 7.86042 15.9167C7.10069 15.6389 6.31389 15.5 5.5 15.5C4.97222 15.5 4.44444 15.5521 3.91667 15.6563C3.38889 15.7604 2.88194 15.9167 2.39583 16.125C2.0625 16.2639 1.74653 16.2394 1.44792 16.0515C1.14931 15.8635 1 15.5894 1 15.2292V4.75C1 4.55556 1.05208 4.375 1.15625 4.20833C1.26042 4.04167 1.40278 3.91667 1.58333 3.83333C2.19 3.55556 2.82299 3.34722 3.48229 3.20833C4.14174 3.06944 4.81431 3 5.5 3C6.29597 3 7.07486 3.09375 7.83667 3.28125C8.59833 3.46875 9.31944 3.75 10 4.125V15.25C10.7083 14.875 11.4375 14.5729 12.1875 14.3438C12.9375 14.1146 13.7083 14 14.5 14C15.019 14 15.5273 14.0451 16.0248 14.1354C16.5222 14.2257 17.0139 14.3472 17.5 14.5V3.5C17.6528 3.55556 17.8065 3.60743 17.961 3.65562C18.1156 3.70396 18.2675 3.76319 18.4167 3.83333C18.5972 3.93056 18.7396 4.05903 18.8438 4.21875C18.9479 4.37847 19 4.55556 19 4.75V15.2292C19 15.5764 18.8507 15.8472 18.5521 16.0417C18.2535 16.2361 17.9375 16.2639 17.6042 16.125C17.1042 15.9306 16.5938 15.7778 16.0729 15.6667C15.5521 15.5556 15.0278 15.5 14.5 15.5C13.6861 15.5 12.8993 15.6389 12.1396 15.9167C11.3799 16.1944 10.6667 16.5556 10 17ZM11.5 13V5L16 1V9L11.5 13ZM8.5 14.4167V5.22917C8.02778 4.96528 7.53125 4.77778 7.01042 4.66667C6.48958 4.55556 5.95833 4.5 5.41667 4.5C4.91667 4.5 4.42125 4.55445 3.93042 4.66333C3.43958 4.77222 2.96278 4.93556 2.5 5.15333V14.4167C2.97222 14.2639 3.45486 14.1563 3.94792 14.0938C4.44097 14.0313 4.93056 14 5.41667 14C5.95 14 6.47222 14.0313 6.98333 14.0938C7.49444 14.1563 8 14.2639 8.5 14.4167Z" fill="url(#paint0_linear_57_99)"/>
<defs>
<linearGradient id="paint0_linear_57_99" x1="10" y1="1" x2="10" y2="17" gradientUnits="userSpaceOnUse">
<stop stop-color="#2563EB"/>
<stop offset="1" stop-color="#DC2626"/>
</linearGradient>
</defs>
</svg>
